<svg xmlns="http://www.w3.org/2000/svg" viewBox="0 0 150.16 58.59"><defs><style>.cls-1{fill:#337d3d;}.cls-2{fill:#e9a822;}.cls-3{fill:#414042;}.cls-4{fill:#939598;}</style></defs><g id="Слой_2" data-name="Слой 2"><g id="Layer_1" data-name="Layer 1"><path class="cls-1" d="M58.59,29.26c-11.21-10-21.32-9.53-29.3,0-8-9.56-18.09-10-29.29,0l0,0,0,0c11.2,10,21.32,9.53,29.29,0,8,9.57,18.09,10,29.3,0l0,0Zm-51.91,0c5.3-4.67,12.1-4.67,17.15,0C18.78,34,12,34,6.68,29.29Zm28.08,0c5.05-4.67,11.84-4.67,17.15,0C46.6,34,39.81,34,34.76,29.29Z"/><path class="cls-1" d="M29.33,0l0,0,0,0c-10,11.2-9.53,21.32,0,29.29C38.86,21.32,39.33,11.2,29.33,0Zm0,6.68C34,12,34,18.78,29.29,23.83,24.62,18.78,24.62,12,29.29,6.68Z"/><path class="cls-1" d="M29.29,29.29c-9.56,8-10,18.09,0,29.3l0,0,0,0C39.33,47.38,38.86,37.27,29.29,29.29Zm0,22.62c-4.67-5.31-4.67-12.1,0-17.15C34,39.81,34,46.6,29.29,51.91Z"/><path class="cls-2" d="M48.71,9.91h0v0c-11.5.66-16.74,6.4-15.87,15.91C42.31,26.65,48.05,21.41,48.71,9.91Zm-13,12.91c.21-5.28,3.89-9,9.31-9.31C44.72,18.93,41,22.62,35.76,22.82Z"/><path class="cls-2" d="M25.79,25.78c.86-9.51-4.37-15.25-15.87-15.91v0h0C10.53,21.41,16.28,26.65,25.79,25.78ZM13.52,13.51c5.42.35,9.1,4,9.31,9.31C17.55,22.62,13.86,18.93,13.52,13.51Z"/><path class="cls-2" d="M32.8,32.8c-.87,9.52,4.37,15.26,15.87,15.91v0h0C48.05,37.17,42.31,31.94,32.8,32.8ZM45.07,45.07c-5.42-.34-9.1-4-9.31-9.3C41,36,44.72,39.66,45.07,45.07Z"/><path class="cls-2" d="M9.88,48.68h0v0c11.5-.65,16.73-6.39,15.87-15.91C16.28,31.94,10.53,37.17,9.88,48.68ZM22.83,35.77c-.21,5.27-3.89,9-9.31,9.3C13.86,39.66,17.55,36,22.83,35.77Z"/><path class="cls-3" d="M69.5,14.88H65.66V10.54h6.06c3.75,0,6.43,0,6.43,4.31v5.39H80V23a31.76,31.76,0,0,1-3.93.34c-1.88,0-3.43-.43-3.43-2.91V17.65H71.34c-1.12,0-1.64.52-1.64,1.22a1.31,1.31,0,0,0,1.37,1.32,1.34,1.34,0,0,0,.72-.2c0,2.24-1.29,3.38-3.59,3.38a3.56,3.56,0,0,1-3.75-3.65c0-2.94,2.23-3.78,4.87-3.78a14.84,14.84,0,0,1,3.29.37V14.72c0-.94-.21-1.41-1.3-1.41H69.47Z"/><path class="cls-3" d="M90.94,18.26l-1-.07V16.78H96.3V19h-1L95.41,23H92.66a11.25,11.25,0,0,1-3.09.45c-5,0-7.81-2.74-7.81-6.4s2.84-6.52,7.81-6.52h5.12v4.52H90.85l0-1.75h-.82c-1.63,0-2.41,1.5-2.41,3.47s.87,3.55,2.26,3.55a1.12,1.12,0,0,0,.93-.36Z"/><path class="cls-3" d="M112.06,17.42c1.15,1.54,2.67,2.84,4.17,2.84a2.72,2.72,0,0,1,.14.82c0,1.32-1.13,2.38-3.09,2.38-3.47,0-4.68-2.18-5.36-5.65V16.06h.18a1.41,1.41,0,0,0,1.57-1.44c0-.74-.52-1.31-1.75-1.31h-1V23H98.6V20.24h2.76V13.31H98.6V10.54h11c3.26,0,4.83,1.59,4.83,3.5a3.19,3.19,0,0,1-2.4,3.2Z"/><path class="cls-3" d="M126,10.36c4.93,0,7.52,3,7.64,6.4,0,3.66-2.84,6.7-7.8,6.7h-.15c-5,0-7.64-3.11-7.64-6.58,0-3.66,2.84-6.52,7.8-6.52Zm1.71,6.51c0-1.68-.1-3.75-2-3.75-1.27,0-2,.82-2,3.08v.58c0,1.68.1,3.75,2,3.75,1.27,0,2-.82,2-3.09Z"/><path class="cls-3" d="M74.18,25.9c5,0,7.45,2.86,7.45,6.52,0,3.12-1.63,6.21-4.89,6.21a3,3,0,0,1-3.11-3.28,1.32,1.32,0,0,0,.71.19c1.07,0,1.65-1.68,1.65-3.41,0-2-.43-3.46-2.06-3.46H72.79V35.6l-1.4,2.77H64.48V35.6h2.77V28.67H64.48V25.9Z"/><path class="cls-3" d="M88.89,30.24H85.05V25.9h6.06c3.75,0,6.43,0,6.43,4.3v5.4h1.82v2.77a32.7,32.7,0,0,1-3.93.33c-1.87,0-3.43-.42-3.43-2.91V33H90.73c-1.12,0-1.64.51-1.64,1.21a1.31,1.31,0,0,0,1.38,1.32,1.35,1.35,0,0,0,.71-.19c0,2.23-1.29,3.37-3.59,3.37a3.55,3.55,0,0,1-3.75-3.64c0-2.95,2.23-3.79,4.87-3.79a14.65,14.65,0,0,1,3.29.38V30.08c0-.95-.21-1.41-1.3-1.41H88.86Z"/><path class="cls-3" d="M101.66,25.9h11.08v2.77H110V35.6h2.77v2.77H101.66V35.6h2.77V28.67h-2.77Z"/><path class="cls-3" d="M129,32.77c1.14,1.54,2.66,2.84,4.16,2.84a2.78,2.78,0,0,1,.14.83c0,1.32-1.13,2.37-3.09,2.37-3.47,0-4.68-2.18-5.36-5.64V31.42H125A1.41,1.41,0,0,0,126.58,30c0-.73-.52-1.3-1.75-1.3h-1v9.7h-8.3V35.6h2.77V28.67h-2.77V25.9h11c3.25,0,4.82,1.59,4.82,3.5A3.2,3.2,0,0,1,129,32.6Z"/><path class="cls-3" d="M144.32,25.9h5.84v2.77h-1.63l-3.34,5.18V35.6h2.95v2.77H136.89V35.6h2.76V33.85l-3.51-5.18h-1.63V25.9h7.27l.93,5.73h.66Z"/><path class="cls-4" d="M68.51,50.52h-.79l-2.06-4.29h0v4.28h-.8V44.71h.8l2,4.28h0V44.71h.79Z"/><path class="cls-4" d="M73.35,49H71.62l-.4,1.49h-.81l1.7-5.81h.77l1.68,5.81h-.81Zm-1.57-.62h1.41l-.7-2.62h0Z"/><path class="cls-4" d="M79.14,45.33H77.72v5.19h-.79V45.33H75.52v-.62h3.62Z"/><path class="cls-4" d="M84.49,44.71v4a1.89,1.89,0,0,1-.49,1.4,1.82,1.82,0,0,1-1.3.47,1.75,1.75,0,0,1-1.28-.47,1.89,1.89,0,0,1-.48-1.4v-4h.79v4a1.48,1.48,0,0,0,.26,1,.89.89,0,0,0,.71.31.91.91,0,0,0,.73-.3,1.47,1.47,0,0,0,.26-1v-4Z"/><path class="cls-4" d="M87.42,48v2.5h-.8V44.71h1.77a1.59,1.59,0,0,1,1.2.42A1.69,1.69,0,0,1,90,46.36a1.47,1.47,0,0,1-.21.8,1.5,1.5,0,0,1-.61.53,1,1,0,0,1,.6.49,2,2,0,0,1,.17.88v.51a2.46,2.46,0,0,0,0,.49.77.77,0,0,0,.18.36v.1h-.82a.67.67,0,0,1-.17-.4,3.28,3.28,0,0,1,0-.56v-.49a1.36,1.36,0,0,0-.19-.78A.65.65,0,0,0,88.4,48Zm0-.62h.89a.82.82,0,0,0,.67-.26,1.15,1.15,0,0,0,.22-.76,1.32,1.32,0,0,0-.2-.78.76.76,0,0,0-.64-.27h-.94Z"/><path class="cls-4" d="M95,47.82H93V49.9h2.35v.62H92.18V44.71h3.13v.62H93V47.2h2Z"/><path class="cls-4" d="M97.61,44.82l-.21,1.49H97v-2h.61Z"/><path class="cls-4" d="M102.12,49.06a1,1,0,0,0-.21-.68,1.8,1.8,0,0,0-.76-.46,3.24,3.24,0,0,1-1.22-.65,1.62,1.62,0,0,1,0-2.21,1.72,1.72,0,0,1,1.22-.44,1.61,1.61,0,0,1,1.25.51,1.76,1.76,0,0,1,.47,1.25h-.81a1.34,1.34,0,0,0-.23-.83.84.84,0,0,0-.69-.31.83.83,0,0,0-.65.26,1,1,0,0,0-.22.68.85.85,0,0,0,.24.63,2.11,2.11,0,0,0,.82.46,2.63,2.63,0,0,1,1.15.67,1.57,1.57,0,0,1,.39,1.11,1.46,1.46,0,0,1-.46,1.14,1.82,1.82,0,0,1-1.24.41,1.93,1.93,0,0,1-1.3-.46,1.6,1.6,0,0,1-.55-1.32h.8a1.23,1.23,0,0,0,.28.89,1,1,0,0,0,.77.28.87.87,0,0,0,.67-.25A1,1,0,0,0,102.12,49.06Z"/><path class="cls-4" d="M107.79,50.52V44.71h1.57a1.78,1.78,0,0,1,1.22.38,1.53,1.53,0,0,1,.43,1.18,1.39,1.39,0,0,1-.2.74,1.14,1.14,0,0,1-.54.45h0A1,1,0,0,1,111,48a1.59,1.59,0,0,1-1.38,2.56Zm.8-3.29h.88A.7.7,0,0,0,110,47a1.13,1.13,0,0,0,.19-.69,1.08,1.08,0,0,0-.21-.73.83.83,0,0,0-.64-.23h-.77Zm0,.58V49.9h1a.74.74,0,0,0,.61-.26,1.21,1.21,0,0,0,.21-.76,1.47,1.47,0,0,0-.18-.79.62.62,0,0,0-.57-.28Z"/><path class="cls-4" d="M116.07,47.82h-2V49.9h2.35v.62h-3.15V44.71h3.13v.62H114V47.2h2Z"/><path class="cls-4" d="M120.79,49.06a1,1,0,0,0-.21-.68,1.8,1.8,0,0,0-.76-.46,3.24,3.24,0,0,1-1.22-.65,1.62,1.62,0,0,1,.05-2.21,1.72,1.72,0,0,1,1.22-.44,1.61,1.61,0,0,1,1.25.51,1.76,1.76,0,0,1,.47,1.25h-.8a1.34,1.34,0,0,0-.24-.83.84.84,0,0,0-.69-.31.83.83,0,0,0-.65.26,1.09,1.09,0,0,0-.22.68.85.85,0,0,0,.24.63,2.18,2.18,0,0,0,.82.46,2.74,2.74,0,0,1,1.16.67,1.61,1.61,0,0,1,.38,1.11,1.43,1.43,0,0,1-.46,1.14,1.82,1.82,0,0,1-1.24.41,1.93,1.93,0,0,1-1.3-.46,1.6,1.6,0,0,1-.55-1.32h.8a1.19,1.19,0,0,0,.29.89,1,1,0,0,0,.76.28.87.87,0,0,0,.67-.25A1,1,0,0,0,120.79,49.06Z"/><path class="cls-4" d="M126.87,45.33h-1.42v5.19h-.79V45.33h-1.41v-.62h3.62Z"/></g></g></svg>