<svg id="bolt_black_24dp" xmlns="http://www.w3.org/2000/svg" width="24" height="24" viewBox="0 0 24 24">
  <g id="Group_5" data-name="Group 5">
    <rect id="Rectangle_12" data-name="Rectangle 12" width="24" height="24" fill="none"/>
  </g>
  <g id="Group_6" data-name="Group 6">
    <path id="Path_17" data-name="Path 17" d="M10.67,21h0a.577.577,0,0,1-.57-.66L11,14H7.5c-.88,0-.33-.75-.31-.78,1.26-2.23,3.15-5.53,5.65-9.93a.58.58,0,0,1,.5-.29h0a.577.577,0,0,1,.57.66L13.01,10h3.51c.4,0,.62.19.4.66q-4.935,8.61-5.75,10.05A.568.568,0,0,1,10.67,21Z" fill="#e94247"/>
  </g>
</svg>
