<svg id="holcim_logo_color" xmlns="http://www.w3.org/2000/svg" width="164.149" height="70.002">
    <defs>
        <style>
            .cls-2{fill:#00020a}
            .cls-3{fill:#919191}
        </style>
    </defs>
    <path id="Pfad_45" data-name="Pfad 45" class="cls-3" d="M52.824 67.045a22.358 22.358 0 1 1 22.309-22.336l-5.466-.036a16.835 16.835 0 1 0-16.834 16.963z" transform="translate(-23.197 -14.96)" style="fill:#db000c"/>
    <path id="Pfad_46" data-name="Pfad 46" class="cls-3" d="M62.644 65.187V53.03H50.737v12.157h-5.378V37.153h5.378v11.24h11.907v-11.24h5.378v28.034z" transform="translate(-4.081 4.383)"/>
    <path id="Pfad_47" data-name="Pfad 47" class="cls-3" d="M77.59 50.581c0-7.105-3.793-10.337-9.648-10.337-6.281 0-10.569 4.626-10.569 11.092 0 7.376 3.795 10.411 9.659 10.411 6.187 0 10.558-4.651 10.558-11.166m-5.5.293c0 4.225-1.993 6.349-4.61 6.349-3.085 0-4.621-2.167-4.621-6.427s2.329-6.09 4.709-6.09c3.112 0 4.522 2.171 4.522 6.169" transform="translate(11.301 8.255)"/>
    <path id="Rechteck_1908" data-name="Rechteck 1908" transform="translate(93.37 39.284)" class="cls-3" d="M0 0h5.317v30.286H0z"/>
    <path id="Pfad_48" data-name="Pfad 48" class="cls-3" d="M81.8 61.653c-5.72 0-9.294-2.982-9.294-10 0-6.434 3.369-11.378 10.677-11.378a15.878 15.878 0 0 1 4.227.581l-.538 4.621a10.732 10.732 0 0 0-3.732-.745c-3.374 0-5.078 2.491-5.078 6.387 0 3.54 1.374 5.948 4.907 5.948a9.355 9.355 0 0 0 4.072-.869l.41 4.506a16.5 16.5 0 0 1-5.651.95" transform="translate(30.637 8.292)"/>
    <path id="Pfad_49" data-name="Pfad 49" class="cls-3" d="M81.347 45.848h5.3v20.289h-5.3zM84 42.808a3.209 3.209 0 1 1 3.315-3.223A3.256 3.256 0 0 1 84 42.808" transform="translate(41.065 3.432)"/>
    <path id="Pfad_50" data-name="Pfad 50" class="cls-3" d="M110.868 61.311v-13.06c0-2.2-.5-3.556-2.45-3.556-2.311 0-4.81 2.725-4.81 6.738v9.878h-5.25v-13.06c0-2.029-.417-3.556-2.437-3.556-2.432 0-4.718 2.892-4.718 6.738v9.878H85.9V41.01h5.01a21.52 21.52 0 0 1-.284 3.4h.074a7.367 7.367 0 0 1 6.788-4.157c3.664 0 5.2 2.149 5.7 4.157A7.451 7.451 0 0 1 110 40.249c3.975 0 6.173 2.2 6.173 6.887v14.175z" transform="translate(47.977 8.26)"/>
    <path id="Pfad_51" data-name="Pfad 51" class="cls-2" d="m48.457 39.768-15.9-16.012-5.292 5.295 15.888 16.005z" transform="translate(-27.269 -13.001)"/>
    <path id="Pfad_52" data-name="Pfad 52" class="cls-2" d="M53.139 34.942 37.248 19.058l-5.3 5.283 15.9 16.017z" transform="translate(-21.406 -19.058)"/>
</svg>
