<svg xmlns="http://www.w3.org/2000/svg" width="104" height="48" viewBox="0 0 104 48" class="logoImg___2Cpa2"><g fill="none" fill-rule="evenodd"><path d="M54.764 27.178h4.82c3.361 0 5.113 1.204 5.113 3.781 0 1.144-.682 1.997-1.381 2.442v.038c.934.33 2.37 1.337 2.37 3.218 0 2.5-1.477 4.224-5.52 4.224h-5.402V27.178zm4.51 5.621c1.438 0 2.157-.25 2.157-1.473 0-1.162-.778-1.627-2.331-1.627h-1.013v3.1h1.187zm.482 5.504c1.751 0 2.627-.463 2.627-1.57 0-1.24-.952-1.686-2.858-1.686h-1.438v3.256h1.669zM66.728 37.859c0-2.675 2.451-3.217 4.547-3.217h1.847v-.66c0-.929-.6-1.2-1.923-1.2-1.048 0-2.18.231-3.168.465l-.643-2.344c1.205-.467 2.604-.854 4.296-.854 3.286 0 4.607.929 4.607 3.313v4.709c0 .352.35.429.954.445l-.116 2.443c-.255.022-.507.022-.76.022-1.281 0-2.643-.215-2.937-1.126-.776.6-1.885 1.2-3.05 1.2-2.334 0-3.654-1.085-3.654-3.196m6.394.33V36.52l-1.594.041c-.953.016-1.65.326-1.65 1.103 0 .62.602.891 1.183.891.623 0 1.364-.175 2.061-.368M78.835 30.301h3.245v1.066c.64-.485 2.043-1.338 3.46-1.338 3.324 0 3.56 1.821 3.56 4.225v6.627h-3.23v-6.357c0-1.453-.33-1.705-1.418-1.705-.972 0-1.847.312-2.372.564v7.498h-3.245V30.3zM91.191 26.27h3.245v7.945l2.939-3.914h3.477l-3.87 4.883 4.51 5.697H97.49l-3.054-4.36v4.36H91.19z" fill="#e24353"></path><path fill="#099a71" d="M32.547 7.014h8.464V20.72H27.265v-3.092l7.593-7.569.373-.37z"></path><path fill="#e24353" d="M24.023 0l9.722 9.69-9.722 9.691-2.19-2.185V5.966h-3.795z"></path><path fill="#099a71" d="M7.037 7.014v8.44l2.31-2.302.375-.37 7.959 7.939h3.103V7.014z"></path><path fill="#e24353" d="M0 23.953l9.722-9.691 9.717 9.691-2.192 2.187H5.985v3.782z"></path><path fill="#099a71" d="M7.037 40.893V27.186h13.747v3.092l-7.593 7.569-.373.37.373.37 2.311 2.306z"></path><path fill="#e24353" d="M24.026 47.907l-9.722-9.69 9.722-9.692 2.187 2.183V41.94h3.798z"></path><path fill="#099a71" d="M41.011 40.893H27.263V27.186h3.103l7.59 7.572.373.367.37-.37 2.312-2.303z"></path><path fill="#e24353" d="M38.33 33.646l-9.718-9.693 2.19-2.185h11.262v-3.782l5.985 5.967z"></path><path d="M54.764 7.029h5.332c3.083 0 5.292 1.8 5.292 4.853 0 2.687-2.21 4.949-6.301 4.949h-1.01v3.865h-3.313V7.029zm4.438 7.269c2.057 0 2.791-1.063 2.791-2.337 0-1.375-.56-2.36-2.325-2.36h-1.59v4.697h1.124zM79.343 19.942l.933-2.358c1.222.427 2.11.62 3.623.62 1.651 0 2.405-.503 2.405-1.334 0-2.223-6.514-1.624-6.514-6.263 0-2.63 2.501-3.771 4.926-3.771 2.17 0 3.218.465 4.283.93l-.95 2.278c-1.008-.287-1.843-.56-3.237-.56-1.375 0-1.804.522-1.804 1.102 0 1.818 6.632 1.818 6.632 6.167 0 2.996-2.87 4.156-5.7 4.156-2.248 0-3.569-.407-4.597-.967M74.049 7.029h-4.5l-4.617 13.667h3.417l1.296-4h4.308l1.296 4h3.414L74.05 7.029zm-3.626 7.289l1.375-5.26 1.377 5.26h-2.752z" fill="#099a71"></path><g fill="#099a71"><path d="M55 7h5.391c3.117 0 5.352 1.802 5.352 4.854 0 2.687-2.235 4.95-6.37 4.95h-1.02v3.87H55V7zm4.49 7.27c2.08 0 2.821-1.067 2.821-2.338 0-1.373-.565-2.357-2.35-2.357h-1.608v4.695h1.136zM99.074 7h-4.48L90 20.673h3.4l1.29-4.002h4.288l1.296 4.002h3.4L99.073 7zm-3.61 7.294l1.374-5.263 1.368 5.263h-2.742zM74.377 7h-4.483L65.3 20.673h3.4l1.29-4.002h4.288l1.296 4.002h3.4L74.376 7zm-3.615 7.294l1.373-5.263 1.37 5.263h-2.743zM86.116 20.432c.196.54.42 1.401.42 1.948 0 1.702-1.727 2.627-2.875 3.177L82.63 23.45c.457-.316 1.38-.733 1.38-1.47 0-.4-.086-.897-.174-1.31-1.998-.025-3.196-.41-4.136-.933l.88-2.294c1.158.414 2.007.602 3.443.602 1.56 0 2.282-.487 2.282-1.296 0-2.16-6.185-1.573-6.185-6.084C80.12 8.11 82.493 7 84.792 7c2.066 0 3.057.455 4.07.904l-.902 2.219c-.957-.283-1.749-.545-3.071-.545-1.31 0-1.715.504-1.715 1.067 0 1.77 6.293 1.77 6.293 5.993 0 2.152-1.488 3.328-3.35 3.794z"></path></g></g></svg>