<?xml version="1.0" encoding="utf-8"?>
<!-- Generator: Adobe Illustrator 17.1.0, SVG Export Plug-In . SVG Version: 6.00 Build 0)  -->
<!DOCTYPE svg PUBLIC "-//W3C//DTD SVG 1.1//EN" "http://www.w3.org/Graphics/SVG/1.1/DTD/svg11.dtd">
<svg version="1.1" id="icons_x5F_sprite-Page_x25_201"
	 xmlns="http://www.w3.org/2000/svg" xmlns:xlink="http://www.w3.org/1999/xlink" x="0px" y="0px" viewBox="193 535 231.164 72"
	 enable-background="new 193 535 231.164 72" xml:space="preserve">
<path fill="#006700" d="M244.915,545.581l2.503,2.345l-9.094,8.522v7.412h19.506v-18.279H244.915z"/>
<path fill="#6D6D6D" d="M231.039,535l-9.462,8.867h4.149v12.006l5.312,4.979l13.793-12.926L231.039,535z"/>
<path fill="#006700" d="M204.392,545.581v12.538l2.4-2.25l8.527,7.991h8.579v-18.279H204.392z"/>
<path fill="#6D6D6D" d="M202.563,576.427h12.464l5.558-5.208l-13.793-12.926L193,571.219l9.563,8.961V576.427z"/>
<path fill="#006700" d="M214.804,594.075l9.094-8.523v-7.411h-19.506v18.279h12.915L214.804,594.075z"/>
<path fill="#6D6D6D" d="M236.495,598.134v-12.006l-5.313-4.98l-13.792,12.927L231.182,607l9.462-8.866H236.495z"/>
<path fill="#006700" d="M255.428,586.702l-9.136-8.561h-7.969v18.279h19.506v-11.968L255.428,586.702z"/>
<path fill="#6D6D6D" d="M259.658,562.392v3.182h-11.855l-6.167,5.779l13.792,12.927l13.793-12.927L259.658,562.392z"/>
<path fill="#6D6D6D" d="M293.5,591.846c-0.801,0.343-2.162,0.628-3.39,0.628c-3.63,0-5.766-2.424-5.766-6.272
	c0-4.276,2.509-6.359,5.739-6.359c1.441,0,2.589,0.344,3.416,0.715l0.828-3.263c-0.721-0.372-2.322-0.797-4.431-0.797
	c-5.445,0-9.125,3.403-9.125,9.96c0,5.474,2.68,9.359,8.724,9.359c2.189,0,3.871-0.398,4.618-0.769L293.5,591.846L293.5,591.846z"/>
<path fill="#6D6D6D" d="M301.734,582.256c-4.35,0-6.718,2.99-6.718,6.839c0,3.891,2.504,6.649,6.476,6.649
	c3.735,0,6.625-2.406,6.625-6.867C308.117,585.306,305.842,582.256,301.734,582.256L301.734,582.256z M301.613,585.453
	c2.086,0,2.931,1.782,2.931,3.545c0,2.124-1.146,3.549-2.931,3.549c-1.966,0-3.024-1.521-3.024-3.549
	C298.589,587.26,299.406,585.453,301.613,585.453L301.613,585.453z"/>
<path fill="#6D6D6D" d="M310.261,595.513h3.573v-7.5c0-0.373,0.051-0.771,0.152-1.011c0.253-0.745,0.885-1.515,1.948-1.515
	c1.391,0,1.95,1.142,1.95,2.817v7.208h3.573V587.8c0-3.825-1.764-5.577-4.156-5.577c-2.049,0-3.314,1.247-3.796,2.07h-0.071
	l-0.164-1.807h-3.114c0.053,1.151,0.107,2.535,0.107,4.16V595.513L310.261,595.513z"/>
<path fill="#6D6D6D" d="M324.185,594.719c0.932,0.604,2.328,1.025,3.893,1.025c3.967,0,5.716-2.02,5.716-4.432
	c-0.024-1.709-0.972-2.825-3.232-3.584c-1.857-0.499-2.484-0.783-2.484-1.33c0-0.593,0.692-0.945,1.912-0.945
	c1.082,0,2.103,0.376,2.638,0.661l0.656-3.005c-0.73-0.457-1.969-0.853-3.459-0.853c-3.411,0-5.32,2.102-5.32,4.499
	c-0.027,1.377,0.93,2.683,3.403,3.489c1.818,0.451,2.314,0.735,2.314,1.329c0,0.594-0.627,0.974-2.144,0.974
	c-1.1,0-2.52-0.475-3.206-0.879L324.185,594.719L324.185,594.719z"/>
<path fill="#6D6D6D" d="M335.938,579.442v2.814h-1.735v3.197h1.735v5.358c0,1.848,0.335,3.095,1.007,3.864
	c0.576,0.664,1.559,1.115,2.752,1.115c1.148,0,2.109-0.133,2.642-0.346l-0.026-3.053c-0.294,0.054-0.694,0.107-1.201,0.107
	c-1.228,0-1.602-0.724-1.602-2.305v-4.742h2.909v-3.197h-2.909v-3.716L335.938,579.442L335.938,579.442z"/>
<path fill="#6D6D6D" d="M345.465,595.513h3.573v-6.604c0-0.68,0.027-1.017,0.08-1.296c0.267-1.317,1.281-2.16,2.776-2.16
	c0.453,0,0.8,0.059,1.094,0.114v-3.265c-0.294-0.047-0.48-0.047-0.854-0.047c-1.254,0-2.856,0.682-3.474,2.291h-0.094l-0.117-2.061
	h-3.091c0.054,1.124,0.107,2.376,0.107,4.293V595.513L345.465,595.513z"/>
<path fill="#6D6D6D" d="M366.188,582.486h-3.573v7.739c0,0.319-0.026,0.639-0.129,0.878c-0.258,0.638-0.877,1.409-1.96,1.409
	c-1.367,0-1.96-1.144-1.96-3.032v-6.994h-3.573v7.633c0,4.013,1.705,5.658,4.063,5.658c2.27,0,3.456-1.327,3.909-2.123h0.07
	l0.164,1.858h3.096c-0.053-1.091-0.106-2.476-0.106-4.18V582.486L366.188,582.486z"/>
<path fill="#6D6D6D" d="M378.708,592.158c-0.614,0.233-1.361,0.389-2.322,0.389c-1.976,0-3.577-1.217-3.577-3.545
	c-0.022-2.07,1.362-3.549,3.497-3.549c1.067,0,1.788,0.185,2.269,0.392l0.641-2.87c-0.854-0.526-2.028-0.719-3.096-0.719
	c-4.637,0-6.883,3.197-6.883,6.901c0,4.009,2.315,6.587,6.322,6.587c1.548,0,2.91-0.268,3.63-0.591L378.708,592.158L378.708,592.158
	z"/>
<path fill="#6D6D6D" d="M382.576,579.442v2.814h-1.735v3.197h1.735v5.358c0,1.848,0.336,3.095,1.007,3.864
	c0.576,0.664,1.559,1.115,2.752,1.115c1.147,0,2.108-0.133,2.643-0.346l-0.027-3.053c-0.294,0.054-0.694,0.107-1.201,0.107
	c-1.228,0-1.602-0.724-1.602-2.305v-4.742h2.91v-3.197h-2.91v-3.716L382.576,579.442L382.576,579.442z"/>
<path fill="#6D6D6D" d="M394.676,595.513v-13.026h-3.573v13.026H394.676L394.676,595.513z M392.878,576.981
	c-1.087,0-1.801,0.688-1.775,1.608c-0.026,0.878,0.688,1.589,1.753,1.589c1.109,0,1.82-0.711,1.82-1.589
	C394.653,577.669,393.965,576.981,392.878,576.981L392.878,576.981z"/>
<path fill="#6D6D6D" d="M404.443,582.256c-4.35,0-6.718,2.99-6.718,6.839c0,3.891,2.504,6.649,6.476,6.649
	c3.734,0,6.624-2.406,6.624-6.867C410.826,585.306,408.55,582.256,404.443,582.256L404.443,582.256z M404.322,585.453
	c2.086,0,2.931,1.782,2.931,3.545c0,2.124-1.147,3.549-2.931,3.549c-1.965,0-3.024-1.521-3.024-3.549
	C401.298,587.26,402.114,585.453,404.322,585.453L404.322,585.453z"/>
<path fill="#6D6D6D" d="M412.969,595.513h3.573v-7.5c0-0.373,0.051-0.771,0.152-1.011c0.253-0.745,0.885-1.515,1.948-1.515
	c1.392,0,1.95,1.142,1.95,2.817v7.208h3.573V587.8c0-3.825-1.764-5.577-4.156-5.577c-2.049,0-3.314,1.247-3.796,2.07h-0.07
	l-0.164-1.807h-3.114c0.054,1.151,0.107,2.535,0.107,4.16V595.513L412.969,595.513z"/>
<path fill="#006700" d="M280.772,564.303h3.573v-5.943c0.458,0.055,1.047,0.082,1.701,0.082c2.944,0,5.129-0.602,6.36-1.94
	c0.947-1.038,1.467-2.792,1.467-4.902s-0.685-3.791-1.703-4.736c-1.065-1.001-2.951-1.501-6.025-1.501
	c-2.698,0-4.26,0.166-5.372,0.389V564.303L280.772,564.303z M284.345,548.752c0.36-0.096,1.047-0.193,2.061-0.193
	c2.486,0,3.893,1.185,3.893,3.168c0,2.206-1.637,3.517-4.286,3.517c-0.72,0-1.243-0.031-1.669-0.128V548.752L284.345,548.752z"/>
<path fill="#006700" d="M304.127,560.336l1.4,3.967h4.411l-5.623-18.711h-5.385l-5.546,18.711h4.254l1.293-3.967H304.127
	L304.127,560.336z M299.523,557.139l1.077-4.268c0.296-1.452,0.565-3.055,0.835-4.312h0.054c0.269,1.258,0.592,2.828,0.916,4.086
	l1.131,4.494H299.523L299.523,557.139z"/>
<path fill="#006700" d="M311.021,563.506c0.913,0.557,2.676,1.088,4.6,1.088c4.843,0,6.835-2.548,6.835-5.707
	c0-2.703-1.282-4.467-4.108-5.719c-2.446-0.939-3.515-1.48-3.515-2.702c0-0.996,0.9-1.847,2.755-1.847
	c1.752,0,2.852,0.538,3.47,0.907l0.779-3.322c-0.917-0.479-2.2-0.903-4.165-0.903c-4.186,0-6.413,2.336-6.413,5.534
	c0,2.788,1.694,4.552,4.444,5.662c2.277,0.824,3.178,1.508,3.178,2.702c0,1.252-1.041,2.077-3.009,2.077
	c-1.689,0-3.151-0.598-4.103-1.195L311.021,563.506L311.021,563.506z"/>
<path fill="#006700" d="M326.505,545.592v18.711h3.573v-7.59h7.86v7.59h3.573v-18.711h-3.573v7.591h-7.86v-7.591H326.505
	L326.505,545.592z"/>
<path fill="#006700" d="M354.576,560.336l1.4,3.967h4.412l-5.623-18.711h-5.385l-5.546,18.711h4.254l1.293-3.967H354.576
	L354.576,560.336z M349.972,557.139l1.077-4.268c0.296-1.452,0.565-3.055,0.835-4.312h0.054c0.269,1.258,0.592,2.828,0.915,4.086
	l1.131,4.494H349.972L349.972,557.139z"/>
</svg>
